<?xml version="1.0" standalone="no"?>
<!DOCTYPE svg PUBLIC "-//W3C//DTD SVG 20010904//EN"
 "http://www.w3.org/TR/2001/REC-SVG-20010904/DTD/svg10.dtd">
<svg version="1.0" xmlns="http://www.w3.org/2000/svg"
 width="16.000000pt" height="16.000000pt" viewBox="0 0 16.000000 16.000000"
 preserveAspectRatio="xMidYMid meet">
<metadata>
Created by potrace 1.16, written by Peter Selinger 2001-2019
</metadata>
<g transform="translate(0.000000,16.000000) scale(0.100000,-0.100000)"
fill="#000000" stroke="none">
<path d="M9 144 c-7 -8 -9 -17 -5 -21 3 -3 6 -1 6 5 0 20 16 13 30 -13 7 -14
20 -25 29 -25 14 0 14 2 1 10 -8 5 -11 12 -7 16 4 4 16 -1 26 -10 17 -15 18
-22 8 -44 -9 -20 -9 -26 1 -30 6 -2 12 -10 12 -18 0 -8 10 -14 23 -14 30 0 35
45 5 47 -31 3 -34 12 -10 29 28 19 28 27 -1 56 -26 27 -99 35 -118 12z"/>
<path d="M135 140 c10 -11 20 -18 23 -15 7 6 -18 35 -31 35 -5 0 -2 -9 8 -20z"/>
<path d="M66 77 c-17 -12 -17 -14 -3 -20 11 -4 21 1 27 13 12 23 2 26 -24 7z"/>
<path d="M7 53 c-11 -10 -8 -25 2 -18 6 3 15 -4 21 -15 7 -14 21 -20 43 -20
l32 0 -25 24 c-27 26 -62 40 -73 29z"/>
</g>
</svg>
